<svg width="30" height="28" viewBox="0 0 30 28" fill="none" xmlns="http://www.w3.org/2000/svg">
<path fill-rule="evenodd" clip-rule="evenodd" d="M1.8175 0H3.02917C4.03296 0 4.84668 0.813725 4.84668 1.8175V26.0509C4.84668 27.0547 4.03296 27.8684 3.02917 27.8684H1.8175C0.813725 27.8684 0 27.0547 0 26.0509V1.8175C0 0.813725 0.813725 0 1.8175 0ZM27.2623 0H9.08723C8.08345 0 7.26972 0.813725 7.26972 1.8175V26.0509C7.26972 27.0547 8.08345 27.8684 9.08723 27.8684H27.2623C28.2661 27.8684 29.0798 27.0547 29.0798 26.0509V1.8175C29.0798 0.813725 28.2661 0 27.2623 0ZM27.8687 26.0509C27.8683 26.3854 27.5973 26.6564 27.2628 26.6568H9.0878C8.75337 26.6564 8.48236 26.3854 8.48196 26.0509V1.81753C8.48236 1.48311 8.75337 1.2121 9.0878 1.2117H27.2628C27.5973 1.2121 27.8683 1.48311 27.8687 1.81753V26.0509ZM24.8392 8.4817C25.1738 8.4817 25.445 8.21046 25.445 7.87587C25.445 7.54127 25.1738 7.27003 24.8392 7.27003H17.5691C17.2345 7.27003 16.9633 7.54127 16.9633 7.87587C16.9633 8.21046 17.2345 8.4817 17.5691 8.4817H24.8392ZM15.5743 6.23587C15.8108 6.47245 15.8108 6.85594 15.5743 7.09252L13.151 9.51586C12.9144 9.75237 12.5309 9.75237 12.2943 9.51586L11.0827 8.30419C10.8531 8.06647 10.8564 7.68861 11.09 7.45492C11.3237 7.22123 11.7016 7.21794 11.9393 7.44754L12.7227 8.23088L14.7177 6.23587C14.9542 5.99936 15.3377 5.99936 15.5743 6.23587ZM24.8392 14.54C25.1738 14.54 25.445 14.2688 25.445 13.9342C25.445 13.5996 25.1738 13.3284 24.8392 13.3284H17.5691C17.2345 13.3284 16.9633 13.5996 16.9633 13.9342C16.9633 14.2688 17.2345 14.54 17.5691 14.54H24.8392ZM15.5743 12.2942C15.8108 12.5308 15.8108 12.9143 15.5743 13.1509L13.151 15.5742C12.9144 15.8107 12.5309 15.8107 12.2943 15.5742L11.0827 14.3625C10.8531 14.1248 10.8564 13.7469 11.09 13.5133C11.3237 13.2796 11.7016 13.2763 11.9393 13.5059L12.7227 14.2892L14.7177 12.2942C14.9542 12.0577 15.3377 12.0577 15.5743 12.2942ZM24.8392 20.5984C25.1738 20.5984 25.445 20.3271 25.445 19.9925C25.445 19.6579 25.1738 19.3867 24.8392 19.3867H17.5691C17.2345 19.3867 16.9633 19.6579 16.9633 19.9925C16.9633 20.3271 17.2345 20.5984 17.5691 20.5984H24.8392ZM15.5743 18.3525C15.8108 18.5891 15.8108 18.9726 15.5743 19.2092L13.151 21.6325C12.9144 21.869 12.5309 21.869 12.2943 21.6325L11.0827 20.4209C10.8531 20.1831 10.8564 19.8053 11.09 19.5716C11.3237 19.3379 11.7016 19.3346 11.9393 19.5642L12.7227 20.3475L14.7177 18.3525C14.9542 18.116 15.3377 18.116 15.5743 18.3525ZM3.63496 26.0509C3.63456 26.3853 3.36355 26.6563 3.02913 26.6567H1.81746C1.48303 26.6563 1.21202 26.3853 1.21162 26.0509V6.05833H3.63496V26.0509ZM1.21162 4.84671H3.63496V1.81753C3.63456 1.48311 3.36355 1.2121 3.02913 1.2117H1.81746C1.48303 1.2121 1.21202 1.48311 1.21162 1.81753V4.84671Z" fill="#999999"/>
</svg>
