<svg width="20" height="12" viewBox="0 0 20 12" fill="none" xmlns="http://www.w3.org/2000/svg">
<path fill-rule="evenodd" clip-rule="evenodd" d="M11.973 0H0.408659C0.231767 0 0.0990973 0.132669 0.0990973 0.309562V8.6014C0.0990973 8.7783 0.231767 8.91096 0.408659 8.91096H2.17759C2.33237 8.91096 2.46504 8.80041 2.48715 8.64563C2.55348 8.31395 2.75249 8.0265 2.99571 7.80539L3.01782 7.78327C3.26105 7.58427 3.59273 7.47371 3.94651 7.47371C4.3003 7.47371 4.63197 7.60638 4.8752 7.80539C5.14054 8.0265 5.31743 8.31395 5.40588 8.64563C5.42799 8.80041 5.56066 8.88885 5.71544 8.88885H11.9951C12.172 8.88885 12.3047 8.75618 12.3047 8.57929V0.309562C12.2826 0.132669 12.1278 0 11.973 0ZM0.696109 0.619124H11.6413V8.29184H5.91444C5.78177 7.91594 5.53855 7.58427 5.25109 7.34104C4.89731 7.05359 4.43297 6.8767 3.9244 6.8767C3.43795 6.8767 2.9736 7.05359 2.61982 7.34104L2.59771 7.36316C2.28814 7.60638 2.06703 7.93806 1.93436 8.31395H0.718222V0.619124H0.696109Z" fill="black"/>
<path fill-rule="evenodd" clip-rule="evenodd" d="M16.9486 4.64342L16.042 1.92369C15.9978 1.79102 15.8872 1.70258 15.7546 1.70258H11.9514C11.7745 1.70258 11.6418 1.83525 11.6418 2.01214V8.60139C11.6418 8.77828 11.7745 8.91095 11.9514 8.91095H13.6761C13.8309 8.91095 13.9635 8.80039 13.9857 8.64561C14.052 8.31394 14.251 8.02649 14.4942 7.80537C14.7596 7.60637 15.0691 7.4737 15.4229 7.4737C15.7767 7.4737 16.1084 7.60637 16.3516 7.80537C16.6169 8.02649 16.7938 8.31394 16.8823 8.64561C16.9044 8.80039 17.037 8.88884 17.1918 8.88884H19.6904C19.8673 8.88884 20 8.75617 20 8.57928V6.05856C20 5.92589 19.9116 5.79322 19.7789 5.74899L16.9486 4.64342ZM15.5335 2.34381L16.4179 4.97509C16.44 5.06354 16.5064 5.12987 16.5948 5.17409L19.403 6.27967V8.29183H17.4572C17.3245 7.91593 17.0813 7.58426 16.7938 7.34103C16.44 7.05358 15.9757 6.87669 15.4671 6.87669C14.9586 6.87669 14.4942 7.05358 14.1404 7.34103C13.8309 7.58426 13.6098 7.91593 13.4771 8.29183H12.3052V2.3217H15.5335V2.34381Z" fill="black"/>
<path fill-rule="evenodd" clip-rule="evenodd" d="M16.7275 5.19621C16.9044 5.19621 17.0371 5.06354 17.0371 4.88665C17.0371 4.70976 16.9044 4.57709 16.7275 4.57709H11.9736C11.7967 4.57709 11.664 4.70976 11.664 4.88665C11.664 5.06354 11.7967 5.19621 11.9736 5.19621H16.7275Z" fill="black"/>
<path fill-rule="evenodd" clip-rule="evenodd" d="M15.4447 6.85458C14.8698 6.85458 14.3391 7.09781 13.9411 7.47371L13.919 7.49582C13.5431 7.87172 13.322 8.40239 13.322 8.97729C13.322 9.5522 13.5652 10.0829 13.9411 10.4809C14.317 10.8568 14.8477 11.1 15.4447 11.1C16.0196 11.1 16.5503 10.8568 16.9483 10.4809C17.3242 10.105 17.5674 9.57431 17.5674 8.97729C17.5674 8.40239 17.3242 7.87172 16.9483 7.47371C16.5724 7.09781 16.0417 6.85458 15.4447 6.85458ZM14.4054 7.91594C14.6708 7.6506 15.0467 7.47371 15.4668 7.47371C15.8869 7.47371 16.2628 7.6506 16.5281 7.91594C16.7935 8.18128 16.9704 8.55717 16.9704 8.97729C16.9704 9.39741 16.7935 9.77331 16.5281 10.0387C16.2628 10.304 15.8869 10.4809 15.4668 10.4809C15.0467 10.4809 14.6708 10.304 14.4054 10.0387C14.1401 9.77331 13.9632 9.39741 13.9632 8.97729C13.9632 8.57929 14.118 8.20339 14.4054 7.91594Z" fill="black"/>
<path fill-rule="evenodd" clip-rule="evenodd" d="M3.92514 6.85458C3.35024 6.85458 2.81956 7.09781 2.42155 7.47371L2.39944 7.49582C2.02354 7.87172 1.80243 8.40239 1.80243 8.97729C1.80243 9.5522 2.04566 10.0829 2.42155 10.4809C2.79745 10.8568 3.32813 11.1 3.92514 11.1C4.50004 11.1 5.03072 10.8568 5.42873 10.4809C5.80462 10.105 6.04785 9.57431 6.04785 8.97729C6.04785 8.40239 5.80462 7.87172 5.42873 7.47371C5.03072 7.09781 4.50004 6.85458 3.92514 6.85458ZM2.86378 7.91594C3.12912 7.6506 3.50502 7.47371 3.92514 7.47371C4.34526 7.47371 4.72116 7.6506 4.9865 7.91594C5.25183 8.18128 5.42873 8.55717 5.42873 8.97729C5.42873 9.39741 5.25183 9.77331 4.9865 10.0387C4.72116 10.304 4.34526 10.4809 3.92514 10.4809C3.50502 10.4809 3.12912 10.304 2.86378 10.0387C2.59845 9.77331 2.42155 9.39741 2.42155 8.97729C2.42155 8.57929 2.59845 8.20339 2.86378 7.91594Z" fill="black"/>
</svg>
